# AST/ASF file generated using VICON BodyLanguage
# -----------------------------------------------
:version 1.10
:name VICON
:units
  mass 1.0
  length 0.45
  angle deg
:documentation
   .ast/.asf automatically generated from VICON data using
   VICON BodyBuilder and BodyLanguage model FoxedUp or BRILLIANT.MOD
:root
   order TX TY TZ RX RY RZ
   axis XYZ
   position 0 0 0  
   orientation 0 0 0 
:bonedata
  begin
     id 1 
     name lhipjoint
     direction 0.521689 -0.742065 0.420928 
     length 2.47002 
     axis 0 0 0  XYZ
  end
  begin
     id 2 
     name lfemur
     direction 0.34202 -0.939693 0  
     length 7.24654  
     axis 0 0 20  XYZ
    dof rx ry rz
    limits (-160.0 20.0)
           (-70.0 70.0)
           (-60.0 70.0)
  end
  begin
     id 3 
     name ltibia
     direction 0.34202 -0.939693 0   
     length 8.04849   
     axis 0 0 20   XYZ
    dof rx
    limits (-10.0 170.0)
  end
  begin
     id 4 
     name lfoot
     direction 0.0745411 -0.2048 0.975961   
     length 1.72367   
     axis -90 7.62852e-016 20   XYZ
    dof rx rz
    limits (-45.0 90.0)
           (-70.0 20.0)
  end
  begin
     id 5 
     name ltoes
     direction 1.53556e-011 -4.21901e-011 1   
     length 0.87311   
     axis -90 7.62852e-016 20   XYZ
    dof rx
    limits (-90.0 20.0)
  end
  begin
     id 6 
     name rhipjoint
     direction -0.52849 -0.738415 0.418857   
     length 2.48223  
     axis 0 0 0  XYZ 
  end
  begin
     id 7 
     name rfemur
     direction -0.34202 -0.939693 0   
     length 7.15571   
     axis 0 0 -20   XYZ
    dof rx ry rz
    limits (-160.0 20.0)
           (-70.0 70.0)
           (-70.0 60.0)
  end
  begin
     id 8 
     name rtibia
     direction -0.34202 -0.939693 0   
     length 7.81659   
     axis 0 0 -20   XYZ
    dof rx
    limits (-10.0 170.0)
 end
 begin
     id 9 
     name rfoot
     direction -0.0917348 -0.252039 0.963359   
     length 1.84382  
     axis -90 -7.62852e-016 -20   XYZ
    dof rx rz
    limits (-45.0 90.0)
           (-20.0 70.0)
  end
  begin
     id 10 
     name rtoes
     direction -1.53551e-011 -4.21879e-011 1   
     length 0.927771   
     axis -90 -7.62852e-016 -20   XYZ
    dof rx
    limits (-90.0 20.0)
  end
  begin
     id 11 
     name lowerback
     direction 0.00583058 0.999822 0.0179296   
     length 2.1429   
     axis 0 0 0   XYZ
    dof rx ry rz
    limits (-20.0 45.0)
           (-30.0 30.0)
           (-30.0 30.0)
  end
  begin
     id 12 
     name upperback
     direction -0.0137999 0.999752 -0.0175071   
     length 2.14252   
     axis 0 0 0   XYZ
    dof rx ry rz
    limits (-20.0 45.0)
           (-30.0 30.0)
           (-30.0 30.0)
  end
  begin
     id 13 
     name thorax
     direction -0.0158036 0.99955 -0.0254909   
     length 2.1383   
     axis 0 0 0   XYZ
    dof rx ry rz
    limits (-20.0 45.0)
           (-30.0 30.0)
           (-30.0 30.0)
  end
  begin
     id 14 
     name lowerneck
     direction -0.0101179 0.999403 -0.0330262   
     length 1.65808   
     axis 0 0 0   XYZ
    dof rx ry rz
    limits (-20.0 45.0)
           (-30.0 30.0)
           (-30.0 30.0)
  end
  begin
     id 15 
     name upperneck
     direction 0.0497734 0.995978 -0.074501   
     length 1.5897   
     axis 0 0 0   XYZ
    dof rx ry rz
    limits (-20.0 45.0)
           (-30.0 30.0)
           (-30.0 30.0)
  end
  begin
     id 16
     name head
     direction 0.0189524 0.999519 -0.0245438  
     length 1.74024  
     axis 0 0 0   XYZ
    dof rx ry rz
    limits (-20.0 45.0)
           (-30.0 30.0)
           (-30.0 30.0)
  end
  begin
     id 17 
     name lclavicle
     direction 0.945604 0.324422 0.0241537  
     length 3.59089  
     axis 0 0 0   XYZ
    dof ry rz
    limits (-20.0 10.0)
           (0.0 20.0)
  end
  begin
     id 18 
     name lhumerus
     direction 1 -4.48964e-011 -2.63524e-027   
     length 5.2391   
     axis 180 -30 -90   XYZ
    dof rx ry rz
    limits (-60.0 90.0)
           (-90.0 90.0)
           (-90.0 90.0)
  end
  begin
     id 19
     name lradius
     direction 1 -4.48969e-011 3.86978e-028   
     length 3.31467   
     axis 180 -30 -90   XYZ
    dof rx
    limits (-10.0 170.0)
  end
  begin
     id 20
     name lwrist
     direction 1 -4.48963e-011 7.20928e-028   
     length 1.65734   
     axis -5.52449e-016 90 90   XYZ
    dof ry
    limits (-180.0 0.0)
 end
  begin
     id 21 
     name lhand
     direction 1 -4.48964e-011 1.44186e-027   
     length 0.9659   
     axis -9.20027e-016 90 90   XYZ
    dof rx rz
    limits (-90.0 90.0)
           (-45.0 45.0)
  end
  begin
     id 22 
     name lfingers
     direction 1 -4.48965e-011 2.88371e-027   
     length 0.778733   
     axis -1.84005e-015 90 90   XYZ
    dof rx
    limits (0.0 90.0)
  end
  begin
     id 23
     name lthumb
     direction 0.707107 -6.34931e-011 0.707107   
     length 1.11811   
     axis -90 45 2.85299e-015   XYZ
    dof rx rz
    limits (-45.0 45.0)
           (-45.0 45.0)
  end
  begin
     id 24 
     name rclavicle
     direction -0.923762 0.370785 0.0958234   
     length 3.54196  
     axis 0 0 0   XYZ 
    dof ry rz
    limits (-10.0 20.0)
           (-20.0 0.0)
  end
  begin
     id 25 
     name rhumerus
     direction -1 -4.48966e-011 1.18702e-017  
     length 5.30252   
     axis 180 30 90   XYZ
    dof rx ry rz
    limits (-90.0 60.0)
           (-90.0 90.0)
           (-90.0 90.0)
  end
  begin
     id 26 
     name rradius
     direction -1 -4.48966e-011 4.46736e-027   
     length 3.67875   
     axis 180 30 90   XYZ
    dof rx
    limits (-10.0 170.0)
  end
  begin
     id 27 
     name rwrist
     direction -1 -4.48966e-011 7.20928e-028   
     length 1.83937   
     axis -5.52449e-016 -90 -90   XYZ
    dof ry
    limits (-180.0 0.0)
  end
  begin
     id 28
     name rhand
     direction -1 -4.48973e-011 1.44186e-027   
     length 0.594811   
     axis -9.20027e-016 -90 -90   XYZ
    dof rx rz
    limits (-90.0 90.0)
           (-45.0 45.0)
  end
  begin
     id 29
     name rfingers
     direction -1 -4.48963e-011 2.88371e-027   
     length 0.479552   
     axis -1.84005e-015 -90 -90   XYZ
    dof rx
    limits (0.0 90.0)
  end
  begin
     id 30
     name rthumb
     direction -0.707107 -6.34932e-011 0.707107   
     length 0.688544   
     axis -90 -45 -2.85299e-015   XYZ
    dof rx rz
    limits (-45.0 45.0)
           (-45.0 45.0)
  end
:hierarchy
  begin
    root lhipjoint rhipjoint lowerback
    lhipjoint lfemur
    lfemur ltibia
    ltibia lfoot
    lfoot ltoes
    rhipjoint rfemur
    rfemur rtibia
    rtibia rfoot
    rfoot rtoes
    lowerback upperback
    upperback thorax
    thorax lowerneck lclavicle rclavicle
    lowerneck upperneck
    upperneck head
    lclavicle lhumerus
    lhumerus lradius
    lradius lwrist
    lwrist lhand lthumb
    lhand lfingers
    rclavicle rhumerus
    rhumerus rradius
    rradius rwrist
    rwrist rhand rthumb
    rhand rfingers
  end

#!OML:ASF E:\acrobat2\Project_11_07_03\Capture day 1\Session 1\Acrobat.ASF
:FULLY-SPECIFIED
:DEGREES
784
root -0.0783758 16.8194 22.3362 -190.021 -60.6701 -149.021
lowerback 21.2974 3.34801 1.27618
upperback 11.4827 3.23618 0.880365
thorax 0.623323 1.09378 -0.437366
lowerneck -0.897918 7.39972 1.93979
upperneck 9.6774 10.2106 -6.9291
head 3.85928 4.79137 -2.25334
rclavicle 1.19271e-014 3.4191e-014
rhumerus -27.2668 1.43086 -47.3899
rradius 19.7131
rwrist 1.17289
rhand -18.3214 -47.5169
rfingers 7.12502
rthumb 7.96011 -77.347
lclavicle 1.19271e-014 3.4191e-014
lhumerus 40.2708 -43.5125 34.7401
lradius 23.8063
lwrist 6.27567
lhand -39.3497 -29.2733
lfingers 7.12502
lthumb -12.3409 0.342534
rfemur -34.6917 -27.1487 -5.57448
rtibia 82.7431
rfoot -5.72449 -2.76685
rtoes -4.66092
lfemur -57.4823 13.649 3.31043
ltibia 86.5662
lfoot -0.863445 -0.164661
ltoes 40.8173
785
root -0.245778 16.8173 22.4691 -190.189 -59.152 -148.869
lowerback 20.7971 3.25808 0.947235
upperback 11.2073 3.10237 0.63739
thorax 0.559781 1.03614 -0.471012
lowerneck -1.0288 7.88225 2.40849
upperneck 10.3257 10.8103 -6.51168
head 4.15033 5.09303 -2.1535
rclavicle -5.08889e-014 -9.70069e-014
rhumerus -28.219 0.758863 -47.0732
rradius 20.0701
rwrist 0.132214
rhand -18.6137 -47.4328
rfingers 7.12502
rthumb 7.678 -77.2734
lclavicle -5.08889e-014 -9.70069e-014
lhumerus 41.3357 -44.6355 35.3238
lradius 24.0769
lwrist 6.29808
lhand -38.9629 -28.7554
lfingers 7.12502
lthumb -11.9678 0.882484
rfemur -33.7459 -26.5395 -6.13706
rtibia 82.3553
rfoot -5.59484 -2.70925
rtoes -5.11042
lfemur -56.7356 14.5531 5.35512
ltibia 85.3178
lfoot -5.28709 0.145146
ltoes 26.1451
786
root -0.420317 16.7943 22.6121 -189.059 -57.7903 -150.081
lowerback 20.0542 3.29664 0.0305584
upperback 10.891 3.05279 0.22751
thorax 0.551381 1.00855 -0.359155
lowerneck -0.785806 8.23397 3.09883
upperneck 10.7381 11.2211 -6.24279
head 4.30548 5.31904 -2.16581
rclavicle 6.04305e-014 2.38542e-014
rhumerus -29.4602 -0.0202506 -46.5025
rradius 20.5144
rwrist -0.748703
rhand -18.7901 -47.2139
rfingers 7.12502
rthumb 7.50775 -77.0606
lclavicle 6.04305e-014 2.38542e-014
lhumerus 42.6417 -46.0862 35.6289
lradius 24.4347
lwrist 6.64135
lhand -38.6868 -28.3802
lfingers 7.12502
lthumb -11.7017 1.27303
rfemur -33.0201 -26.1463 -7.67987
rtibia 82.135
rfoot -5.50294 -2.5593
rtoes -5.91121
lfemur -55.9674 15.0753 6.59362
ltibia 83.4922
lfoot -8.65958 0.690811
ltoes 15.9564
787
root -0.543787 16.7805 22.6746 -195.065 -55.1111 -144.421
lowerback 20.6817 3.34511 1.77493
upperback 10.8678 3.37617 1.18799
thorax 0.272768 1.18049 -0.408967
lowerneck -0.666097 8.68592 3.42301
upperneck 11.6191 11.7709 -5.75424
head 4.13511 5.5804 -1.81869
rclavicle -2.70347e-014 3.02153e-014
rhumerus -30.3178 -0.458746 -45.8508
rradius 20.8663
rwrist -1.45979
rhand -18.6992 -46.9479
rfingers 7.12502
rthumb 7.59548 -76.7915
lclavicle -2.70347e-014 3.02153e-014
lhumerus 43.7245 -47.3307 35.7651
lradius 24.7936
lwrist 7.15633
lhand -38.09 -28.1574
lfingers 7.12502
lthumb -11.1261 1.52762
rfemur -31.3293 -23.3671 -4.18298
rtibia 81.3496
rfoot -5.31845 -2.33347
rtoes -5.62204
lfemur -53.2816 16.5479 13.0735
ltibia 81.2029
lfoot -11.2263 1.03872
ltoes 13.9131
788
root -0.760241 16.7543 22.8932 -190.345 -55.419 -149.509
lowerback 19.5818 4.03323 -0.168337
upperback 10.6612 3.99012 -0.0329932
thorax 0.551043 1.479 -0.682421
lowerneck -1.25769 7.95058 6.13787
upperneck 12.6025 10.6338 -5.45308
head 4.609 5.12079 -2.16321
rclavicle 4.92986e-014 -3.49861e-014
rhumerus -33.6871 -4.33008 -43.9854
rradius 21.4114
rwrist -1.48948
rhand -18.5459 -46.6164
rfingers 7.12502
rthumb 7.74342 -76.4547
lclavicle 4.92986e-014 -3.49861e-014
lhumerus 50.6736 -50.5336 31.4085
lradius 25.4857
lwrist 8.54816
lhand -37.2853 -27.5207
lfingers 7.12502
lthumb -10.3499 2.20458
rfemur -30.1495 -24.6719 -9.43816
rtibia 81.1319
rfoot -5.18356 -2.05165
rtoes -5.74397
lfemur -53.1592 14.6264 10.9012
ltibia 78.1129
lfoot -13.1066 1.22883
ltoes 17.2654
